<svg xmlns="http://www.w3.org/2000/svg" version="1.1" xmlns:xlink="http://www.w3.org/1999/xlink" xmlns:svgjs="http://svgjs.com/svgjs" width="512" height="512" x="0" y="0" viewBox="0 0 60 60" style="enable-background:new 0 0 512 512" xml:space="preserve" class=""><g><g fill="#000" fill-rule="nonzero"><path d="M54 19.307V8a2 2 0 0 0-2-2h-5a2 2 0 0 0-2 2v3.84L31.287.464a2.016 2.016 0 0 0-2.574 0L.729 23.68a2.015 2.015 0 0 0-.223 2.887L3 29.38c.72.821 1.964.916 2.8.214l.2-.172V58a2 2 0 0 0 2 2h44a2 2 0 0 0 2-2V29.422l.207.172A2.006 2.006 0 0 0 57 29.38l2.491-2.814a2.014 2.014 0 0 0-.223-2.886zM47 8h5v9.647L47 13.5zm5 50H8V27.763l22-18.25 22 18.25zm3.505-29.946a.015.015 0 0 1-.021 0L30.639 7.444a1 1 0 0 0-1.278 0L4.5 28.054l-2.494-2.835L30.01 2 58 25.241z" fill="#000080" data-original="#000000" class=""></path><path d="M30 27a7.988 7.988 0 0 0-6.369 3.178 6 6 0 0 0-9.8 6.842A6.43 6.43 0 0 0 11 42.33v3.89A1.782 1.782 0 0 0 12.78 48H20v4a2 2 0 0 0 2 2h16a2 2 0 0 0 2-2v-4h7.22A1.782 1.782 0 0 0 49 46.22v-3.89a6.429 6.429 0 0 0-2.826-5.31 6 6 0 0 0-9.8-6.842A7.988 7.988 0 0 0 30 27zm0 2a6 6 0 1 1 0 12 6 6 0 0 1 0-12zm-11 1c1.486 0 2.85.826 3.536 2.144a7.824 7.824 0 0 0-.394 4.33c-.051.064-.1.128-.168.2A4 4 0 1 1 19 30zm1.078 16H17v-2a1 1 0 0 0-2 0v2h-2v-3.67a4.441 4.441 0 0 1 2.107-3.772 5.974 5.974 0 0 0 7.752.028c.282.562.63 1.089 1.034 1.57A8.017 8.017 0 0 0 20.078 46zM38 52h-3v-3a1 1 0 0 0-2 0v3h-6v-3a1 1 0 0 0-2 0v3h-3v-5a6.005 6.005 0 0 1 3.465-5.417 7.965 7.965 0 0 0 9.07 0A6.005 6.005 0 0 1 38 47zm9-6h-2v-2a1 1 0 0 0-2 0v2h-3.078a8.017 8.017 0 0 0-3.815-5.844 8.013 8.013 0 0 0 1.034-1.57 5.976 5.976 0 0 0 7.753-.028A4.44 4.44 0 0 1 47 42.33zm-6-16a4 4 0 1 1-3.142 6.475 7.828 7.828 0 0 0-.394-4.331A3.985 3.985 0 0 1 41 30z" fill="#000080" data-original="#000000" class=""></path></g></g></svg>