<svg xmlns="http://www.w3.org/2000/svg" version="1.1" xmlns:xlink="http://www.w3.org/1999/xlink" xmlns:svgjs="http://svgjs.com/svgjs" width="512" height="512" x="0" y="0" viewBox="0 0 64 64" style="enable-background:new 0 0 512 512" xml:space="preserve" class=""><g><path d="M54.3 28.5c.5.3 1.1.2 1.4-.3 2.4-3.6 2.5-3.5 2.4-4.1s1.6.7-25.5-17.4c-.8-.5 1.1-1.5-26.2 16.7-.5.3-.6.9-.3 1.4l2.2 3.3c.3.5.9.6 1.4.3l2.3-1.6V50H8c-.6 0-1 .4-1 1v5c0 .6.4 1 1 1h48c.6 0 1-.4 1-1v-5c0-.6-.4-1-1-1h-4V26.9zM9.4 26.3l-1.1-1.7L32 8.8l23.7 15.8-1.1 1.7C31.1 10.6 32.5 11.4 32 11.4c-.4 0 1.1-.9-22.6 14.9zM55 55H9v-3h46zm-25-5H20V31h10zm20-24.4V50H32V30c0-.6-.4-1-1-1H19c-.6 0-1 .4-1 1v20h-4V25.6l18-12z" fill="#000080" data-original="#000000"></path><path d="M35 45h12c1.3 0 1.3-2 0-2h-1V30c0-.6-.4-1-1-1h-8c-.6 0-1 .4-1 1v13h-1c-1.3 0-1.3 2 0 2zm9-14v5h-6v-5zm-6 7h6v5h-6zM22 41c1.3 0 1.3-2 0-2s-1.3 2 0 2z" fill="#000080" data-original="#000000"></path></g></svg>