<svg xmlns="http://www.w3.org/2000/svg" xmlns:xlink="http://www.w3.org/1999/xlink" xmlns:svgjs="http://svgjs.com/svgjs" version="1.1" width="512" height="512" x="0" y="0" viewBox="0 0 64 64" style="enable-background:new 0 0 512 512" xml:space="preserve" class=""><g><path d="M12 39c3.31 0 6-2.69 6-6 0-2.35-2.99-8.98-4.41-12H24v10c0 .55.45 1 1 1v17.28c-4.75.4-16 1.81-16 6.22S20.57 62 32 62s23-2.23 23-6.5-11.25-5.82-16-6.22V32c.55 0 1-.45 1-1V21h10.41C48.99 24.02 46 30.65 46 33c0 3.31 2.69 6 6 6s6-2.69 6-6c0-2.35-2.99-8.98-4.41-12H54c.55 0 1-.45 1-1v-4c0-.55-.45-1-1-1H10c-.55 0-1 .45-1 1v4c0 .55.45 1 1 1h.41C8.99 24.02 6 30.65 6 33c0 3.31 2.69 6 6 6zm41 16.5c0 1.57-7.21 4.5-21 4.5s-21-2.93-21-4.5c0-1.09 4.14-3.37 14-4.2V55c0 .55.45 1 1 1h3.43c.5 0 .93-.37.99-.87l.53-4.11h2.1l.53 4.11c.06.5.49.87.99.87H38c.55 0 1-.45 1-1v-3.7c9.86.83 14 3.12 14 4.2zM32 34c-.5 0-.93.37-.99.87L28.55 54H27V32h10v22h-1.55l-2.46-19.13A.994.994 0 0 0 32 34zm.79 15.01H31.2l.79-6.17.79 6.17zM52 37c-1.86 0-3.41-1.28-3.86-3h7.72c-.45 1.72-2 3-3.86 3zm3.84-5h-7.69c.53-2.18 2.31-6.39 3.84-9.67 1.53 3.29 3.32 7.49 3.84 9.67zM11 17h42v2H39c-.55 0-1 .45-1 1v10H26V20c0-.55-.45-1-1-1H11zm1 5.33c1.53 3.29 3.32 7.49 3.84 9.67H8.15c.53-2.18 2.31-6.39 3.84-9.67zM15.86 34c-.45 1.72-2 3-3.86 3s-3.41-1.28-3.86-3zM26 8c0 3.31 2.69 6 6 6s6-2.69 6-6-2.69-6-6-6-6 2.69-6 6zm10 0c0 2.21-1.79 4-4 4s-4-1.79-4-4 1.79-4 4-4 4 1.79 4 4z" fill="#ec3496" data-original="#000000" class=""/></g></svg>