<svg xmlns="http://www.w3.org/2000/svg" xmlns:xlink="http://www.w3.org/1999/xlink" xmlns:svgjs="http://svgjs.com/svgjs" version="1.1" width="512" height="512" x="0" y="0" viewBox="0 0 512 512" style="enable-background:new 0 0 512 512" xml:space="preserve" class=""><g><path d="M425.687 167.483a7 7 0 0 1-7 7h-97.656a7 7 0 1 1 0-14h97.656a7 7 0 0 1 7 7zm-7 39.858H253.356a7 7 0 1 0 0 14h165.331a7 7 0 1 0 0-14zm-97.656-79.716h97.656a7 7 0 1 0 0-14h-97.656a7 7 0 1 0 0 14zm151.702 193.6-135.351 52.157c-1.428.55-2.889 1.118-4.377 1.697-16.896 6.576-36.996 14.397-56.165 14.398-5.568 0-11.055-.659-16.365-2.201l-72.118-20.94c-8.812-2.558-17.111-1.853-25.365 2.161l-22.599 10.987 3.933 9.444c2.25 5.402 2.27 11.335.055 16.704-2.216 5.369-6.412 9.562-11.817 11.808L97.89 431.837a21.664 21.664 0 0 1-8.327 1.666c-8.545 0-16.672-5.054-20.155-13.417L10.696 279.104c-2.25-5.402-2.27-11.335-.055-16.704 2.216-5.369 6.412-9.562 11.817-11.808l34.673-14.397c11.089-4.607 23.866.667 28.482 11.751l3.479 8.353c16.622-7.856 34.186-16.215 51.792-24.823 18.834-9.211 34.595-16.173 51.736-16.427V101.192c0-12.515 10.181-22.695 22.695-22.695h241.411c12.515 0 22.695 10.181 22.695 22.695v143.437c10.714 3.594 18.382 10.876 21.706 20.688 7.052 20.816-6.483 47.464-28.394 55.908zM456.727 92.497H294.894v81.273a7 7 0 0 1-7 7h-81.273v35.573c12.638 2.513 26.513 8.835 43.122 20.474l64.188 17.199c9.691 2.597 17.808 8.84 22.853 17.579.435.753.842 1.517 1.222 2.289l90.348-26.505c14.11-4.139 26.515-5.899 37.07-5.293V101.192c-.002-4.795-3.902-8.695-8.697-8.695zm-175.833 0h-34.168c11.125 1.459 19.744 10.995 19.744 22.511 0 8.255-4.429 15.494-11.034 19.471 11.277 3.358 20.531 11.444 25.458 21.954zm-37.136 13.799c-4.805 0-8.713 3.907-8.713 8.711s3.908 8.712 8.713 8.712c4.804 0 8.712-3.908 8.712-8.712s-3.908-8.711-8.712-8.711zm0 40.478c-12.466 0-22.981 8.494-26.073 19.996h52.142c-3.091-11.502-13.604-19.996-26.069-19.996zm-37.137-45.582v55.237c4.927-10.508 14.182-18.593 25.459-21.95-6.605-3.977-11.034-11.215-11.034-19.471 0-11.516 8.62-21.051 19.745-22.511h-25.474c-4.796 0-8.696 3.9-8.696 8.695zm-75.219 293.119L72.69 253.329c-1.246-2.992-4.154-4.8-7.211-4.8-.994 0-2.004.191-2.979.596l-34.673 14.397c-1.949.81-3.456 2.307-4.244 4.217s-.775 4.034.036 5.982l58.712 140.982c1.651 3.965 6.218 5.852 10.189 4.204l34.673-14.397c1.949-.81 3.456-2.307 4.244-4.217s.776-4.034-.035-5.982zm356.466-124.503c-4.879-14.407-25.655-17.772-55.574-8.994l-90.548 26.563c.35 4.25-.032 8.568-1.165 12.799-2.597 9.691-8.84 17.808-17.579 22.853-8.739 5.046-18.89 6.394-28.58 3.798l-86.902-23.286a7 7 0 0 1 3.623-13.523l86.902 23.286c6.076 1.626 12.455.777 17.957-2.398 5.501-3.176 9.427-8.272 11.056-14.352s.777-12.457-2.398-17.957c-3.176-5.501-8.272-9.427-14.352-11.056l-65.391-17.521a6.966 6.966 0 0 1-2.237-1.052c-41.22-29.229-61.143-21.787-95.645-4.916-17.89 8.747-35.711 17.226-52.554 25.186l40.521 97.302 21.868-10.632c11.356-5.523 23.264-6.536 35.391-3.017l72.119 20.94c19.035 5.53 43.716-4.079 63.549-11.799a1701.44 1701.44 0 0 1 4.421-1.715L467.7 308.16c14.801-5.703 24.792-24.701 20.168-38.352z" fill="#009dc9" data-original="#000000" class=""/></g></svg>